<svg width="25" height="24" viewBox="0 0 25 24" fill="none" xmlns="http://www.w3.org/2000/svg">
<mask id="mask0_160_682" style="mask-type:luminance" maskUnits="userSpaceOnUse" x="2" y="8" width="21" height="15">
<path fill-rule="evenodd" clip-rule="evenodd" d="M2.5 8.79297H22.4996V22.537H2.5V8.79297Z" fill="white"/>
</mask>
<g mask="url(#mask0_160_682)">
<path fill-rule="evenodd" clip-rule="evenodd" d="M18.065 22.537H6.935C4.49 22.537 2.5 20.548 2.5 18.102V13.227C2.5 10.782 4.49 8.79297 6.935 8.79297H7.868C8.282 8.79297 8.618 9.12897 8.618 9.54297C8.618 9.95697 8.282 10.293 7.868 10.293H6.935C5.316 10.293 4 11.609 4 13.227V18.102C4 19.721 5.316 21.037 6.935 21.037H18.065C19.683 21.037 21 19.721 21 18.102V13.218C21 11.605 19.688 10.293 18.076 10.293H17.133C16.719 10.293 16.383 9.95697 16.383 9.54297C16.383 9.12897 16.719 8.79297 17.133 8.79297H18.076C20.515 8.79297 22.5 10.778 22.5 13.218V18.102C22.5 20.548 20.51 22.537 18.065 22.537Z" fill="#B3BAC5"/>
</g>
<mask id="mask1_160_682" style="mask-type:luminance" maskUnits="userSpaceOnUse" x="11" y="2" width="3" height="14">
<path fill-rule="evenodd" clip-rule="evenodd" d="M11.75 2H13.25V15.5409H11.75V2Z" fill="white"/>
</mask>
<g mask="url(#mask1_160_682)">
<path fill-rule="evenodd" clip-rule="evenodd" d="M12.5 15.541C12.086 15.541 11.75 15.205 11.75 14.791V2.75C11.75 2.336 12.086 2 12.5 2C12.914 2 13.25 2.336 13.25 2.75V14.791C13.25 15.205 12.914 15.541 12.5 15.541Z" fill="#B3BAC5"/>
</g>
<path fill-rule="evenodd" clip-rule="evenodd" d="M9.58569 6.42706C9.39469 6.42706 9.20269 6.35406 9.05669 6.20806C8.76369 5.91606 8.76169 5.44206 9.05469 5.14806L11.9697 2.22006C12.2507 1.93706 12.7507 1.93706 13.0317 2.22006L15.9477 5.14806C16.2397 5.44206 16.2387 5.91606 15.9457 6.20806C15.6517 6.50006 15.1777 6.50006 14.8857 6.20606L12.5007 3.81206L10.1167 6.20606C9.97069 6.35406 9.77769 6.42706 9.58569 6.42706Z" fill="#B3BAC5"/>
</svg>
