<svg width="87" height="18" viewBox="0 0 87 18" fill="none" xmlns="http://www.w3.org/2000/svg">
<path d="M7.26562 9.4375C7.26562 10.0104 7.14323 10.4974 6.89844 10.8984C6.65885 11.2943 6.33594 11.6146 5.92969 11.8594C5.52344 12.1042 5.07031 12.2812 4.57031 12.3906C4.07031 12.5 3.5625 12.5547 3.04688 12.5547C2.60938 12.5547 2.17448 12.526 1.74219 12.4688C1.3151 12.4115 0.911458 12.3281 0.53125 12.2188L0.929688 10.5469C1.21094 10.6198 1.53125 10.6823 1.89062 10.7344C2.25521 10.7812 2.625 10.8047 3 10.8047C3.47396 10.8047 3.90104 10.7552 4.28125 10.6562C4.66667 10.5573 4.97135 10.3984 5.19531 10.1797C5.41927 9.96094 5.53125 9.67188 5.53125 9.3125C5.53125 8.85417 5.3099 8.30208 4.86719 7.65625C4.42448 7.00521 3.76823 6.29948 2.89844 5.53906L4.04688 4.1875C4.6875 4.75 5.25 5.31771 5.73438 5.89062C6.21875 6.45833 6.59375 7.03646 6.85938 7.625C7.13021 8.21354 7.26562 8.81771 7.26562 9.4375ZM10.0234 7.60938L11.6953 7.04688C11.9766 7.96875 12.1901 8.78646 12.3359 9.5C12.4818 10.2083 12.5547 10.8646 12.5547 11.4688C12.5547 12.3385 12.3854 13.1146 12.0469 13.7969C11.7135 14.4792 11.1849 15.0885 10.4609 15.625C9.73698 16.1667 8.79427 16.6536 7.63281 17.0859L6.875 15.4922C7.82292 15.1484 8.58333 14.7891 9.15625 14.4141C9.72917 14.0391 10.1432 13.6146 10.3984 13.1406C10.6589 12.6667 10.7891 12.1146 10.7891 11.4844C10.7891 10.9948 10.724 10.4323 10.5938 9.79688C10.4688 9.15625 10.2786 8.42708 10.0234 7.60938ZM18.6641 10.7266C18.638 10.3516 18.5911 9.98958 18.5234 9.64062C18.4609 9.28646 18.3698 8.96875 18.25 8.6875C18.1354 8.40104 17.9844 8.17448 17.7969 8.00781C17.6146 7.83594 17.388 7.75 17.1172 7.75C16.8203 7.75 16.5755 7.84635 16.3828 8.03906C16.1901 8.22656 16.0469 8.47135 15.9531 8.77344C15.8594 9.07031 15.8125 9.38542 15.8125 9.71875C15.8125 10.099 15.9271 10.3646 16.1562 10.5156C16.3854 10.6667 16.724 10.7422 17.1719 10.7422C17.4219 10.7422 17.6745 10.7396 17.9297 10.7344C18.1849 10.7292 18.4297 10.7266 18.6641 10.7266ZM18.4531 12.5C18.2031 12.5 17.9531 12.5 17.7031 12.5C17.4583 12.5 17.2135 12.5 16.9688 12.5C16.1302 12.5 15.4688 12.2839 14.9844 11.8516C14.5 11.4141 14.2578 10.7526 14.2578 9.86719C14.2578 9.41927 14.3151 8.97135 14.4297 8.52344C14.5443 8.07031 14.7188 7.65885 14.9531 7.28906C15.1927 6.91406 15.4948 6.61458 15.8594 6.39062C16.224 6.16146 16.6536 6.04688 17.1484 6.04688C17.7109 6.04688 18.1849 6.17969 18.5703 6.44531C18.9557 6.71094 19.2656 7.06771 19.5 7.51562C19.7396 7.96354 19.9193 8.46615 20.0391 9.02344C20.1589 9.58073 20.237 10.1536 20.2734 10.7422H21V12.5H20.2109C20.0443 13.5781 19.4922 14.487 18.5547 15.2266C17.6172 15.9661 16.3359 16.5755 14.7109 17.0547L13.9844 15.4453C15.2292 15.1016 16.237 14.6797 17.0078 14.1797C17.7839 13.6849 18.2656 13.125 18.4531 12.5ZM24.6953 5.45312C25.0703 5.45312 25.4635 5.53125 25.875 5.6875C26.2917 5.83854 26.7422 6.02344 27.2266 6.24219C27.7161 6.46094 28.2474 6.6849 28.8203 6.91406C29.3984 7.13802 30.0365 7.31771 30.7344 7.45312V8.92969L27.4062 11.1562C26.6927 11.625 25.9583 11.9661 25.2031 12.1797C24.4479 12.3932 23.6224 12.5 22.7266 12.5H21C20.9062 12.5 20.8385 12.4375 20.7969 12.3125C20.75 12.1875 20.7266 11.9557 20.7266 11.6172C20.7266 11.2786 20.75 11.0495 20.7969 10.9297C20.8385 10.8047 20.9062 10.7422 21 10.7422H23.0391C23.4974 10.7422 23.9271 10.7109 24.3281 10.6484C24.7292 10.5859 25.1146 10.4844 25.4844 10.3438C25.8594 10.1979 26.237 10.0078 26.6172 9.77344L28.6719 8.47656C28.1927 8.38281 27.763 8.26302 27.3828 8.11719C27.0026 7.96615 26.6536 7.82031 26.3359 7.67969C26.0391 7.54427 25.763 7.42969 25.5078 7.33594C25.2578 7.24219 25.013 7.19531 24.7734 7.19531C24.388 7.19531 24.0833 7.32812 23.8594 7.59375C23.6406 7.85417 23.4818 8.21875 23.3828 8.6875L23.3281 8.96094L21.9219 8.70312L21.9766 8.36719C22.1432 7.48177 22.4349 6.77604 22.8516 6.25C23.2682 5.71875 23.8828 5.45312 24.6953 5.45312ZM24.8359 2.17969L26.1094 0.90625L27.375 2.17969L26.1094 3.45312L24.8359 2.17969ZM33.4766 7.60938L35.1484 7.04688C35.4297 7.96875 35.6432 8.78646 35.7891 9.5C35.9349 10.2083 36.0078 10.8646 36.0078 11.4688C36.0078 12.3385 35.8385 13.1146 35.5 13.7969C35.1667 14.4792 34.638 15.0885 33.9141 15.625C33.1901 16.1667 32.2474 16.6536 31.0859 17.0859L30.3281 15.4922C31.276 15.1484 32.0365 14.7891 32.6094 14.4141C33.1823 14.0391 33.5964 13.6146 33.8516 13.1406C34.112 12.6667 34.2422 12.1146 34.2422 11.4844C34.2422 10.9948 34.1771 10.4323 34.0469 9.79688C33.9219 9.15625 33.7318 8.42708 33.4766 7.60938ZM32.9844 3.92188L34.2578 2.64844L35.5234 3.92188L34.2578 5.19531L32.9844 3.92188ZM37.8984 1.55469H39.6641V8.89844C39.6641 9.5599 39.7995 10.0339 40.0703 10.3203C40.3464 10.6016 40.8646 10.7422 41.625 10.7422H41.6328V12.5H41.625C40.4271 12.5 39.5052 12.2031 38.8594 11.6094C38.2188 11.0104 37.8984 10.1172 37.8984 8.92969V1.55469ZM45.1328 5.95312C45.2734 6.54688 45.388 7.11198 45.4766 7.64844C45.5651 8.1849 45.6094 8.68229 45.6094 9.14062C45.6094 9.81771 45.487 10.4089 45.2422 10.9141C45.0026 11.4193 44.6172 11.8099 44.0859 12.0859C43.5547 12.362 42.8594 12.5 42 12.5H41.6406C41.5469 12.5 41.4792 12.4401 41.4375 12.3203C41.3906 12.1953 41.3672 11.9609 41.3672 11.6172C41.3672 11.2786 41.3906 11.0495 41.4375 10.9297C41.4792 10.8047 41.5469 10.7422 41.6406 10.7422H42C42.6771 10.7422 43.1615 10.5938 43.4531 10.2969C43.75 10 43.8984 9.5599 43.8984 8.97656C43.8984 8.64844 43.8568 8.26823 43.7734 7.83594C43.6953 7.40365 43.5964 6.92708 43.4766 6.40625L45.1328 5.95312ZM41.4844 15.2422L42.7578 13.9688L44.0234 15.2422L42.7578 16.5156L41.4844 15.2422ZM54.6562 15.0156C55.6875 15.0156 56.4453 14.7578 56.9297 14.2422C57.4141 13.7266 57.6562 12.9401 57.6562 11.8828V1.55469H59.4141V11.8828C59.4141 12.9557 59.2188 13.8542 58.8281 14.5781C58.4375 15.3073 57.8776 15.8568 57.1484 16.2266C56.4193 16.5964 55.5469 16.7812 54.5312 16.7812C53.5521 16.7812 52.7318 16.612 52.0703 16.2734C51.4141 15.9401 50.9167 15.4688 50.5781 14.8594C50.2448 14.2552 50.0781 13.5495 50.0781 12.7422C50.0781 12.2057 50.1406 11.6328 50.2656 11.0234C50.3958 10.4089 50.5833 9.78906 50.8281 9.16406L52.3828 9.72656C52.2005 10.2266 52.0573 10.7214 51.9531 11.2109C51.8542 11.6953 51.8047 12.1354 51.8047 12.5312C51.8047 13.3125 52.0365 13.9219 52.5 14.3594C52.9688 14.7969 53.6875 15.0156 54.6562 15.0156ZM61.6797 1.55469H63.4453V8.89844C63.4453 9.5599 63.5807 10.0339 63.8516 10.3203C64.1276 10.6016 64.6458 10.7422 65.4062 10.7422H65.4141V12.5H65.4062C64.2083 12.5 63.2865 12.2031 62.6406 11.6094C62 11.0104 61.6797 10.1172 61.6797 8.92969V1.55469ZM70.8047 10.7422C71.2057 10.7526 71.513 10.638 71.7266 10.3984C71.9401 10.1589 72.0703 9.77865 72.1172 9.25781L72.25 7.64062L73.8047 7.75781L73.7031 9.21875C73.6615 9.74479 73.7474 10.1302 73.9609 10.375C74.1745 10.6198 74.4974 10.7422 74.9297 10.7422C75.7005 10.7422 76.0859 10.2786 76.0859 9.35156C76.0859 9.1901 76.0755 8.98438 76.0547 8.73438C76.0339 8.48438 76.0026 8.21615 75.9609 7.92969C75.9245 7.64323 75.8802 7.36719 75.8281 7.10156L77.5391 6.6875C77.5964 6.95312 77.6458 7.24219 77.6875 7.55469C77.7292 7.86198 77.7604 8.17188 77.7812 8.48438C77.8073 8.79167 77.8203 9.07292 77.8203 9.32812C77.8203 10.3906 77.6042 11.1849 77.1719 11.7109C76.7396 12.237 76.0833 12.5 75.2031 12.5C74.6042 12.5 74.112 12.3776 73.7266 12.1328C73.3464 11.8828 73.0859 11.5312 72.9453 11.0781C72.6276 12.026 71.8984 12.5 70.7578 12.5C70.1589 12.5 69.6745 12.3672 69.3047 12.1016C68.9401 11.8359 68.6953 11.4505 68.5703 10.9453C68.3776 11.4141 68.0286 11.7917 67.5234 12.0781C67.0182 12.3594 66.4375 12.5 65.7812 12.5H65.4219C65.3281 12.5 65.2604 12.4297 65.2188 12.2891C65.1719 12.1432 65.1484 11.9141 65.1484 11.6016C65.1484 11.2943 65.1693 11.0755 65.2109 10.9453C65.2526 10.8099 65.3229 10.7422 65.4219 10.7422H65.7812C66.4583 10.7422 66.9609 10.5859 67.2891 10.2734C67.6224 9.96094 67.8229 9.4375 67.8906 8.70312L68.0234 7.25L69.7891 7.38281L69.6328 9.08594C69.5807 9.61719 69.6536 10.0234 69.8516 10.3047C70.0495 10.5859 70.3672 10.7318 70.8047 10.7422ZM80.5703 7.60938L82.2422 7.04688C82.5234 7.96875 82.737 8.78646 82.8828 9.5C83.0286 10.2083 83.1016 10.8646 83.1016 11.4688C83.1016 12.3385 82.9323 13.1146 82.5938 13.7969C82.2604 14.4792 81.7318 15.0885 81.0078 15.625C80.2839 16.1667 79.3411 16.6536 78.1797 17.0859L77.4219 15.4922C78.3698 15.1484 79.1302 14.7891 79.7031 14.4141C80.276 14.0391 80.6901 13.6146 80.9453 13.1406C81.2057 12.6667 81.3359 12.1146 81.3359 11.4844C81.3359 10.9948 81.2708 10.4323 81.1406 9.79688C81.0156 9.15625 80.8255 8.42708 80.5703 7.60938ZM86.8359 12.5H85.0781V1.55469H86.8359V12.5Z" fill="white"/>
</svg>
