<svg width="24" height="24" viewBox="0 0 24 24" fill="none" xmlns="http://www.w3.org/2000/svg">
<path fill-rule="evenodd" clip-rule="evenodd" d="M12 3.5C7.30521 3.5 3.5 7.30521 3.5 12C3.5 16.6948 7.30521 20.5 12 20.5C16.6948 20.5 20.5 16.6948 20.5 12C20.5 7.30521 16.6948 3.5 12 3.5ZM2 12C2 6.47679 6.47679 2 12 2C17.5232 2 22 6.47679 22 12C22 17.5232 17.5232 22 12 22C6.47679 22 2 17.5232 2 12Z" fill="#238FF3"/>
<path fill-rule="evenodd" clip-rule="evenodd" d="M17 12C17 14.7616 14.7616 17 12 17C9.23838 17 7 14.7616 7 12C7 9.23838 9.23838 7 12 7C14.7616 7 17 9.23838 17 12Z" fill="#238FF3"/>
<path fill-rule="evenodd" clip-rule="evenodd" d="M12 7.75C9.65259 7.75 7.75 9.65259 7.75 12C7.75 14.3474 9.65259 16.25 12 16.25C14.3474 16.25 16.25 14.3474 16.25 12C16.25 9.65259 14.3474 7.75 12 7.75ZM6.25 12C6.25 8.82416 8.82416 6.25 12 6.25C15.1758 6.25 17.75 8.82416 17.75 12C17.75 15.1758 15.1758 17.75 12 17.75C8.82416 17.75 6.25 15.1758 6.25 12Z" fill="#238FF3"/>
</svg>
