<svg width="20" height="20" viewBox="0 0 20 20" fill="none" xmlns="http://www.w3.org/2000/svg">
<path d="M13.9524 6.03401C14.2551 5.73868 14.255 5.25196 13.9522 4.95672C13.66 4.67172 13.1938 4.67176 12.9015 4.95682L9.1315 8.63437C8.8286 8.92984 8.82873 9.41686 9.13178 9.71217C9.42418 9.99709 9.89041 9.99695 10.1826 9.71185L13.9524 6.03401ZM18.2766 4.95549C17.9836 4.67098 17.5174 4.67143 17.225 4.95649L9.71925 12.2733C9.6844 12.3073 9.62883 12.3073 9.59394 12.2734L6.98588 9.73582C6.69338 9.45123 6.22742 9.4514 5.93513 9.73621C5.63187 10.0317 5.63176 10.5191 5.9349 10.8147L8.97308 13.7777C9.35293 14.1482 9.95887 14.1482 10.3387 13.7778L18.2777 6.03624C18.5816 5.73989 18.5811 5.2512 18.2766 4.95549ZM1.61284 9.73554C1.30719 10.0316 1.30634 10.5215 1.61096 10.8186L4.80319 13.9319C5.09558 14.217 5.56198 14.2171 5.85449 13.9321C6.15753 13.6368 6.15786 13.1499 5.85523 12.8542L2.66596 9.73787C2.37346 9.45206 1.9066 9.45103 1.61284 9.73554Z" fill="#0ACA9B"/>
</svg>
