<svg width="21" height="20" viewBox="0 0 21 20" fill="none" xmlns="http://www.w3.org/2000/svg">
<path fill-rule="evenodd" clip-rule="evenodd" d="M10.4996 2.40234C6.3043 2.40234 2.90234 5.8043 2.90234 9.99957C2.90234 14.1948 6.3043 17.5968 10.4996 17.5968C14.6957 17.5968 18.0968 14.1949 18.0968 9.99957C18.0968 5.80426 14.6957 2.40234 10.4996 2.40234ZM1.65234 9.99957C1.65234 5.11394 5.61394 1.15234 10.4996 1.15234C15.3861 1.15234 19.3468 5.11399 19.3468 9.99957C19.3468 14.8851 15.3861 18.8468 10.4996 18.8468C5.61394 18.8468 1.65234 14.8852 1.65234 9.99957Z" fill="#5E6C84"/>
<path fill-rule="evenodd" clip-rule="evenodd" d="M9.86841 14.2644C9.86841 13.9192 10.1482 13.6394 10.4934 13.6394H10.5023C10.8475 13.6394 11.1273 13.9192 11.1273 14.2644C11.1273 14.6096 10.8475 14.8894 10.5023 14.8894H10.4934C10.1482 14.8894 9.86841 14.6096 9.86841 14.2644Z" fill="#5E6C84"/>
<path fill-rule="evenodd" clip-rule="evenodd" d="M11.8577 5.01435C11.2265 4.70845 10.5105 4.6279 9.82747 4.78626L9.82603 4.78659L9.82603 4.78659C9.1458 4.94601 8.53982 5.33188 8.10551 5.8806C7.67127 6.42925 7.43388 7.10878 7.4307 7.80924C7.42913 8.15441 7.70768 8.4355 8.05286 8.43707C8.39803 8.43863 8.67912 8.16008 8.68069 7.81491C8.6826 7.39311 8.8256 6.98494 9.08566 6.65637C9.34551 6.32807 9.70677 6.09858 10.1105 6.00379C10.5146 5.91026 10.9384 5.95788 11.3125 6.13921C11.687 6.3207 11.9903 6.62573 12.1714 7.00528L12.1733 7.00908L12.1733 7.00908C12.2932 7.25609 12.3409 7.53254 12.3108 7.80582C12.1336 8.37541 11.7854 8.87497 11.3148 9.23552C10.6034 9.77186 10.1035 10.5432 9.9017 11.413C9.8237 11.7493 10.033 12.0851 10.3693 12.1631C10.7055 12.2411 11.0414 12.0317 11.1194 11.6955C11.2554 11.1093 11.592 10.5914 12.0687 10.2326L12.0725 10.2297L12.0725 10.2297C12.7686 9.69722 13.2768 8.95509 13.524 8.11214C13.5326 8.083 13.539 8.05328 13.5432 8.02321C13.618 7.49103 13.5329 6.94829 13.2986 6.46488C12.9958 5.83173 12.4882 5.3199 11.8577 5.01435Z" fill="#5E6C84"/>
</svg>
