<svg width="32" height="32" viewBox="0 0 32 32" fill="none" xmlns="http://www.w3.org/2000/svg">
<path fill-rule="evenodd" clip-rule="evenodd" d="M9.84624 18.4982L7.86548 26.8445C7.77845 27.21 7.99864 27.425 8.09873 27.5007C8.19881 27.5764 8.46426 27.7339 8.79759 27.5538L26.2194 18.0919C26.5267 17.9239 26.5606 17.6341 26.5606 17.5192C26.5623 17.4061 26.5258 17.1241 26.2299 16.9587L8.83919 7.44605C8.50934 7.26589 8.23955 7.42429 8.13946 7.5C8.03764 7.57746 7.81223 7.79591 7.89578 8.16318L9.85232 16.6522L19.1299 16.6036C19.639 16.601 20.055 17.0118 20.0585 17.5218C20.062 18.0318 19.6495 18.4478 19.1403 18.4504L9.84624 18.4982ZM6.72016 28.7435C6.11442 28.1377 5.86724 27.2744 6.06915 26.418L8.17001 17.5687L6.09772 8.57743C5.87491 7.6079 6.22825 6.63141 7.02371 6.02916C7.8183 5.42604 8.8531 5.35033 9.72429 5.8264L27.115 15.3391C27.9148 15.7769 28.4065 16.6115 28.4083 17.5218C28.4057 18.4365 27.9053 19.2764 27.0994 19.7133L9.67836 29.1743C8.80283 29.6512 7.76802 29.572 6.97777 28.968C6.88552 28.8967 6.80023 28.8235 6.72016 28.7435Z" fill="#09B188"/>
</svg>
