<svg width="40" height="41" viewBox="0 0 40 41" fill="none" xmlns="http://www.w3.org/2000/svg">
<path fill-rule="evenodd" clip-rule="evenodd" d="M19.9999 3.83331C29.2047 3.83331 36.6666 11.2952 36.6666 20.5C36.6666 29.7047 29.2047 37.1666 19.9999 37.1666C10.7952 37.1666 3.33325 29.7047 3.33325 20.5C3.33325 11.2952 10.7952 3.83331 19.9999 3.83331Z" stroke="#DCFAF5" stroke-width="1.5" stroke-linecap="round" stroke-linejoin="round"/>
<path fill-rule="evenodd" clip-rule="evenodd" d="M25.0844 21.2756C23.8694 22.5856 20.5627 24.8023 18.8711 25.5139C18.6011 25.6273 17.9127 25.8673 17.7644 25.8706C17.4494 25.8806 17.1461 25.7039 16.9994 25.4206C16.9427 25.3106 16.7761 24.5923 16.7227 24.2723C16.5644 23.2989 16.4827 21.7873 16.4844 20.2673C16.4827 18.6723 16.5711 17.0889 16.7477 16.1256C16.7944 15.8656 16.9311 15.2673 16.9711 15.1706C17.0461 14.9906 17.1827 14.8489 17.3477 14.7606C17.4744 14.6923 17.6194 14.6556 17.7644 14.6606C17.9127 14.6639 18.5161 14.8756 18.7227 14.9573C20.3527 15.5906 23.8011 17.8873 25.0677 19.2373C25.1811 19.3589 25.4927 19.6856 25.5444 19.7523C25.6627 19.9023 25.7211 20.0839 25.7211 20.2673C25.7211 20.4373 25.6694 20.6106 25.5627 20.7556C25.5077 20.8306 25.1894 21.1639 25.0844 21.2756Z" stroke="#DCFAF5" stroke-width="1.5" stroke-linecap="round" stroke-linejoin="round"/>
</svg>
