<svg width="32" height="31" viewBox="0 0 32 31" fill="none" xmlns="http://www.w3.org/2000/svg">
<path fill-rule="evenodd" clip-rule="evenodd" d="M9.84624 17.9982L7.86548 26.3445C7.77845 26.7101 7.99864 26.925 8.09873 27.0007C8.19881 27.0765 8.46426 27.234 8.79759 27.0538L26.2194 17.5919C26.5267 17.424 26.5606 17.1342 26.5606 17.0193C26.5623 16.9061 26.5258 16.6241 26.2299 16.4588L8.83919 6.94611C8.50934 6.76595 8.23955 6.92435 8.13946 7.00006C8.03764 7.07752 7.81223 7.29597 7.89578 7.66324L9.85232 16.1523L19.1299 16.1036C19.639 16.101 20.055 16.5118 20.0585 17.0218C20.062 17.5318 19.6495 17.9478 19.1403 17.9504L9.84624 17.9982ZM6.72016 28.2435C6.11442 27.6378 5.86724 26.7744 6.06915 25.9181L8.17001 17.0687L6.09772 8.0775C5.87491 7.10796 6.22825 6.13147 7.02371 5.52922C7.8183 4.9261 8.8531 4.8504 9.72429 5.32646L27.115 14.8391C27.9148 15.2769 28.4065 16.1116 28.4083 17.0219C28.4057 17.9366 27.9053 18.7764 27.0994 19.2133L9.67836 28.6744C8.80283 29.1513 7.76802 29.0721 6.97777 28.4681C6.88552 28.3967 6.80023 28.3236 6.72016 28.2435Z" fill="#0ACA9B"/>
</svg>
