<svg width="52" height="20" viewBox="0 0 52 20" fill="none" xmlns="http://www.w3.org/2000/svg">
<path d="M22.0909 4.04957C22.1827 4.04957 22.2876 4.01094 22.3532 3.94656L23.7175 2.59463C23.8618 2.453 23.8618 2.23412 23.7175 2.09249C23.5732 1.95086 23.3502 1.95086 23.2059 2.09249L21.8285 3.44442C21.6842 3.58605 21.6842 3.80493 21.8285 3.94656C21.8941 4.01094 21.999 4.04957 22.0909 4.04957ZM24.8981 6.36716C24.2947 6.36716 23.8093 6.84355 23.8093 7.43583V11.3242C23.7044 12.8822 22.3401 14.0667 20.7397 13.9637C19.2967 13.8736 18.1423 12.7405 18.0505 11.3242V3.27704C18.0505 2.68476 17.5651 2.20837 16.9617 2.20837C16.3583 2.20837 15.8729 2.68476 15.8729 3.27704V11.3242C15.7679 12.8822 14.4037 14.0667 12.8033 13.9637C11.3603 13.8736 10.2059 12.7405 10.114 11.3242C10.114 8.58175 7.84462 6.36716 5.05047 6.36716C2.25631 6.36716 0 8.59462 0 11.3371C0 14.0796 2.26943 16.2942 5.06358 16.2942C5.44401 16.2942 5.82443 16.2556 6.19174 16.1654C6.78205 16.0367 7.14936 15.4573 7.00506 14.8779C6.86076 14.2985 6.28357 13.938 5.69325 14.0796C5.48336 14.1311 5.26036 14.1568 5.03735 14.1568C3.43694 14.1568 2.15137 12.895 2.15137 11.3242C2.15137 9.75342 3.43694 8.49162 5.03735 8.49162C6.63775 8.49162 7.92333 9.75342 7.92333 11.3242C7.92333 14.0667 10.1796 16.2942 12.9738 16.2942C14.5217 16.2942 15.991 15.5989 16.9486 14.4015C18.6802 16.5517 21.8547 16.9251 24.0455 15.2384C25.2654 14.2985 25.9738 12.8564 25.9738 11.3371V7.43583C25.9869 6.84355 25.5016 6.36716 24.8981 6.36716Z" fill="#EBECF0"/>
<path d="M21.4069 20.0067C22.0155 20.0067 22.5088 19.5225 22.5088 18.9251C22.5088 18.3278 22.0155 17.8436 21.4069 17.8436C20.7983 17.8436 20.305 18.3278 20.305 18.9251C20.305 19.5225 20.7983 20.0067 21.4069 20.0067Z" fill="#EBECF0"/>
<path fill-rule="evenodd" clip-rule="evenodd" d="M47.0738 6.635C47.548 7.1367 47.5257 7.92785 47.024 8.40207L41.7343 13.4021C41.2525 13.8575 40.4989 13.8575 40.017 13.4021L36.9734 10.5257C36.4717 10.0515 36.4494 9.26039 36.9236 8.75865C37.3977 8.25691 38.1889 8.23457 38.6906 8.70875L40.8756 10.7737L45.3067 6.58524C45.8084 6.11102 46.5996 6.1333 47.0738 6.635Z" fill="#EBECF0"/>
<path fill-rule="evenodd" clip-rule="evenodd" d="M36.8118 1.44387C38.3216 0.520811 40.1015 -0.00634766 42 -0.00634766C47.5191 -0.00634766 52 4.47452 52 9.99365C52 15.5128 47.5191 19.9937 42 19.9937C36.4809 19.9937 32 15.5128 32 9.99365V2.10061C32 0.583965 33.5995 -0.521155 35.0373 0.254412C35.4296 0.462858 36.0237 0.876635 36.481 1.20457C36.5964 1.28731 36.708 1.36816 36.8118 1.44387ZM42 2.21587C40.286 2.21587 38.7082 2.76487 37.4386 3.69704L36.79 4.17324L36.1352 3.70555C36.1098 3.6874 36.0482 3.64174 35.9687 3.58279C35.9182 3.54535 35.8605 3.50255 35.8002 3.45803C35.6327 3.33433 35.4165 3.17574 35.1861 3.01049C34.8274 2.7533 34.4761 2.5106 34.2222 2.35112V9.99365C34.2222 14.2855 37.7082 17.7714 42 17.7714C46.2918 17.7714 49.7778 14.2855 49.7778 9.99365C49.7778 5.70182 46.2918 2.21587 42 2.21587Z" fill="#EBECF0"/>
</svg>
