<svg width="21" height="20" viewBox="0 0 21 20" fill="none" xmlns="http://www.w3.org/2000/svg">
<path d="M9.57947 13.558C9.57947 13.213 9.85947 12.928 10.2045 12.928C10.5495 12.928 10.8295 13.2038 10.8295 13.5488V13.558C10.8295 13.903 10.5495 14.183 10.2045 14.183C9.85947 14.183 9.57947 13.903 9.57947 13.558Z" fill="#F74455"/>
<path d="M4.19445 17.0149H16.2628C17.2186 16.9649 17.9536 16.1508 17.9045 15.1949C17.8936 15.0016 17.852 14.8108 17.7786 14.6324L11.7145 4.01909C11.2511 3.18159 10.197 2.87825 9.35945 3.34242C9.07445 3.49909 8.83945 3.73409 8.68195 4.01909L2.61778 14.6324C2.25778 15.5191 2.68445 16.5291 3.57028 16.8899C3.75028 16.9624 3.94028 17.0041 4.13362 17.0149" stroke="#F74455" stroke-width="1.5" stroke-linecap="round" stroke-linejoin="round"/>
<path d="M10.1919 11.1634V8.58008" stroke="#F74455" stroke-width="1.5" stroke-linecap="round" stroke-linejoin="round"/>
</svg>
