<svg width="20" height="20" viewBox="0 0 20 20" fill="none" xmlns="http://www.w3.org/2000/svg">
<path fill-rule="evenodd" clip-rule="evenodd" d="M10 2.88614C6.0709 2.88614 2.8862 6.07159 2.8862 9.99996C2.8862 13.9283 6.0709 17.1138 10 17.1138C13.9283 17.1138 17.1138 13.9283 17.1138 9.99996C17.1138 6.07163 13.9283 2.88614 10 2.88614ZM1.66669 9.99996C1.66669 5.39816 5.3973 1.66663 10 1.66663C14.6019 1.66663 18.3334 5.39812 18.3334 9.99996C18.3334 14.6018 14.6019 18.3333 10 18.3333C5.3973 18.3333 1.66669 14.6018 1.66669 9.99996Z" fill="#5E6C84"/>
<path fill-rule="evenodd" clip-rule="evenodd" d="M13.8753 7.89143C14.1194 8.13551 14.1194 8.53124 13.8753 8.77532L9.92028 12.7303C9.67623 12.9744 9.28058 12.9744 9.03648 12.7304L7.05815 10.7529C6.81402 10.5089 6.81394 10.1132 7.05797 9.86902C7.30199 9.6249 7.69772 9.62481 7.94185 9.86884L9.47824 11.4046L12.9914 7.89143C13.2355 7.64735 13.6312 7.64735 13.8753 7.89143Z" fill="#5E6C84"/>
</svg>
