<svg width="54" height="28" viewBox="0 0 54 28" fill="none" xmlns="http://www.w3.org/2000/svg">
<path d="M3.97656 17.9609C4.49219 17.9609 4.88021 17.8307 5.14062 17.5703C5.40104 17.3047 5.53125 16.9505 5.53125 16.5078C5.53125 16.0339 5.39062 15.5365 5.10938 15.0156C4.82812 14.4896 4.45052 14.0078 3.97656 13.5703C3.50781 14.0026 3.1276 14.4818 2.83594 15.0078C2.54948 15.5286 2.40625 16.0286 2.40625 16.5078C2.40625 16.9505 2.53646 17.3047 2.79688 17.5703C3.0625 17.8307 3.45573 17.9609 3.97656 17.9609ZM3.97656 19.0859C3.4349 19.0859 2.96875 18.9818 2.57812 18.7734C2.1875 18.5599 1.88542 18.2708 1.67188 17.9062C1.46354 17.5417 1.35938 17.1302 1.35938 16.6719C1.35938 16.2083 1.44531 15.7552 1.61719 15.3125C1.78906 14.8646 2.02083 14.4375 2.3125 14.0312C2.60938 13.6198 2.94531 13.237 3.32031 12.8828C3.1849 12.7526 3.05469 12.6302 2.92969 12.5156C2.80469 12.401 2.66927 12.2839 2.52344 12.1641L3.20312 11.3516C3.71354 11.7734 4.17708 12.2005 4.59375 12.6328C5.01562 13.0651 5.3776 13.5 5.67969 13.9375C5.98177 14.375 6.21354 14.8151 6.375 15.2578C6.54167 15.7005 6.625 16.1484 6.625 16.6016C6.625 17.0755 6.51302 17.5 6.28906 17.875C6.07031 18.25 5.76302 18.5469 5.36719 18.7656C4.97135 18.9792 4.50781 19.0859 3.97656 19.0859ZM10.0391 19H8.92188V8.45312H10.0391V19ZM13.7891 14.4766L14.8594 14.1328C15.1198 15.0339 15.3125 15.8125 15.4375 16.4688C15.5677 17.1198 15.6328 17.7135 15.6328 18.25C15.6328 19.0729 15.474 19.8021 15.1562 20.4375C14.8438 21.0781 14.349 21.6484 13.6719 22.1484C13 22.6536 12.1172 23.1146 11.0234 23.5312L10.5625 22.5156C11.5156 22.1458 12.2812 21.7604 12.8594 21.3594C13.4375 20.9635 13.8568 20.5156 14.1172 20.0156C14.3828 19.5156 14.5156 18.9349 14.5156 18.2734C14.5156 17.7995 14.4557 17.2552 14.3359 16.6406C14.2214 16.026 14.0391 15.3047 13.7891 14.4766ZM22.1172 12.4453L22.0312 11.1484L23.1484 11.0859L23.4297 15.8828C23.4766 16.6016 23.6745 17.1146 24.0234 17.4219C24.3724 17.7292 24.9714 17.8828 25.8203 17.8828H25.8281V19H25.8203C24.9922 19 24.3385 18.8932 23.8594 18.6797C23.3802 18.4661 23.0182 18.1458 22.7734 17.7188C22.4818 17.8125 22.1797 17.8854 21.8672 17.9375C21.5599 17.9844 21.2552 18.0078 20.9531 18.0078C20.3698 18.0078 19.8516 17.9271 19.3984 17.7656C18.9453 17.599 18.5885 17.3542 18.3281 17.0312C18.0729 16.7083 17.9453 16.3099 17.9453 15.8359C17.9453 15.237 18.1224 14.7057 18.4766 14.2422C18.8307 13.7786 19.3203 13.3958 19.9453 13.0938C20.5755 12.7865 21.2995 12.5703 22.1172 12.4453ZM22.1875 13.5C21.474 13.5781 20.8828 13.7266 20.4141 13.9453C19.9453 14.1641 19.5964 14.4271 19.3672 14.7344C19.138 15.0365 19.0234 15.3568 19.0234 15.6953C19.0234 16.0859 19.1953 16.3932 19.5391 16.6172C19.8828 16.8411 20.3776 16.9531 21.0234 16.9531C21.263 16.9531 21.5104 16.9375 21.7656 16.9062C22.026 16.8698 22.2604 16.8203 22.4688 16.7578C22.4323 16.6432 22.4036 16.5208 22.3828 16.3906C22.362 16.2604 22.3464 16.112 22.3359 15.9453L22.1875 13.5ZM18.7266 10.2578C18.5807 10.2578 18.4323 10.2526 18.2812 10.2422C18.1302 10.2266 17.987 10.2057 17.8516 10.1797L17.9922 9.57812C18.1068 9.60417 18.237 9.625 18.3828 9.64062C18.5339 9.65104 18.6849 9.65625 18.8359 9.65625C19.0547 9.65625 19.2734 9.63542 19.4922 9.59375C19.7161 9.54688 19.901 9.46875 20.0469 9.35938C20.1979 9.24479 20.2734 9.08854 20.2734 8.89062C20.2734 8.73958 20.1901 8.6276 20.0234 8.55469C19.862 8.48177 19.6823 8.42448 19.4844 8.38281C19.1875 8.3151 18.9115 8.21354 18.6562 8.07812C18.4062 7.9375 18.2812 7.67188 18.2812 7.28125C18.2812 6.81771 18.4323 6.44271 18.7344 6.15625C19.0417 5.86979 19.4219 5.72656 19.875 5.72656C20.0365 5.72656 20.1875 5.74479 20.3281 5.78125C20.474 5.81771 20.6172 5.86458 20.7578 5.92188L20.5469 6.4375C20.4531 6.39583 20.3516 6.36198 20.2422 6.33594C20.138 6.3099 20.026 6.29688 19.9062 6.29688C19.6198 6.29688 19.3698 6.375 19.1562 6.53125C18.9427 6.68229 18.8359 6.90625 18.8359 7.20312C18.8359 7.41667 18.9219 7.5599 19.0938 7.63281C19.2656 7.70573 19.4688 7.77083 19.7031 7.82812C19.9948 7.89062 20.2552 7.98958 20.4844 8.125C20.7135 8.25521 20.8281 8.4974 20.8281 8.85156C20.8281 9.17969 20.7266 9.44792 20.5234 9.65625C20.3203 9.85938 20.0599 10.0104 19.7422 10.1094C19.4245 10.2083 19.0859 10.2578 18.7266 10.2578ZM30.875 11.5938L31.9375 10.5312L33 11.5938L31.9375 12.6484L30.875 11.5938ZM33.6016 11.5938L34.6641 10.5312L35.7266 11.5938L34.6641 12.6484L33.6016 11.5938ZM32.2422 9.21094L33.3047 8.14844L34.3672 9.21094L33.3047 10.2656L32.2422 9.21094ZM35.3828 17.8828C35.8724 17.8828 36.2292 17.7448 36.4531 17.4688C36.6823 17.1927 36.7969 16.7682 36.7969 16.1953C36.7969 15.9453 36.776 15.6458 36.7344 15.2969C36.6927 14.9427 36.6276 14.5495 36.5391 14.1172L37.6328 13.8984L37.8359 15.3047C37.9297 15.9453 38.0807 16.4557 38.2891 16.8359C38.5026 17.2109 38.7943 17.4792 39.1641 17.6406C39.5391 17.8021 40.0156 17.8828 40.5938 17.8828H40.6094V19H40.5938C39.7604 19 39.0807 18.8333 38.5547 18.5C38.0339 18.1667 37.7109 17.6979 37.5859 17.0938C37.5182 17.7292 37.3047 18.2057 36.9453 18.5234C36.5859 18.8411 36.1016 19 35.4922 19C34.9245 19 34.4609 18.8698 34.1016 18.6094C33.7474 18.349 33.5104 17.9818 33.3906 17.5078C33.099 18.5026 32.388 19 31.2578 19C30.6536 19 30.1667 18.8542 29.7969 18.5625C29.4323 18.2708 29.2005 17.8464 29.1016 17.2891C28.9401 17.7995 28.599 18.2135 28.0781 18.5312C27.5573 18.8438 26.9453 19 26.2422 19H25.8281C25.7552 19 25.7031 18.9557 25.6719 18.8672C25.6354 18.7734 25.6172 18.6276 25.6172 18.4297C25.6172 18.237 25.6354 18.099 25.6719 18.0156C25.7031 17.9271 25.7552 17.8828 25.8281 17.8828H26.2422C27.0286 17.8828 27.6146 17.6927 28 17.3125C28.3906 16.9271 28.6302 16.2891 28.7188 15.3984L28.8281 14.2031L29.9531 14.3047L29.8047 15.8359C29.737 16.4974 29.8281 17.0026 30.0781 17.3516C30.3333 17.7005 30.737 17.8776 31.2891 17.8828C31.7734 17.888 32.1432 17.7474 32.3984 17.4609C32.6536 17.1693 32.8099 16.6953 32.8672 16.0391L33 14.5781L34.0234 14.6641L33.9141 15.9844C33.862 16.6406 33.9661 17.1224 34.2266 17.4297C34.4922 17.7318 34.8776 17.8828 35.3828 17.8828ZM44.7422 9.09375L45.8047 8.03125L46.8672 9.09375L45.8047 10.1484L44.7422 9.09375ZM42.0156 9.09375L43.0781 8.03125L44.1406 9.09375L43.0781 10.1484L42.0156 9.09375ZM41.6562 14.8672C41.6562 14.263 41.7786 13.7448 42.0234 13.3125C42.2682 12.875 42.6016 12.5391 43.0234 12.3047C43.4453 12.0703 43.9245 11.9531 44.4609 11.9531C44.987 11.9531 45.4609 12.0703 45.8828 12.3047C46.3047 12.5391 46.638 12.8724 46.8828 13.3047C47.1328 13.737 47.2578 14.2552 47.2578 14.8594C47.2578 15.5156 47.0938 16.0703 46.7656 16.5234C46.4375 16.9766 46.0365 17.3438 45.5625 17.625C45.8333 17.7083 46.1198 17.7734 46.4219 17.8203C46.7292 17.862 47.0417 17.8828 47.3594 17.8828H48.3047V19H47.1953C46.6849 19 46.2083 18.9531 45.7656 18.8594C45.3229 18.7604 44.8802 18.6146 44.4375 18.4219C44 18.6146 43.5547 18.7604 43.1016 18.8594C42.6536 18.9531 42.1693 19 41.6484 19H40.6094C40.526 19 40.4688 18.9583 40.4375 18.875C40.4062 18.7917 40.3906 18.6484 40.3906 18.4453C40.3906 18.237 40.4062 18.0911 40.4375 18.0078C40.4688 17.9245 40.526 17.8828 40.6094 17.8828H41.5312C41.8594 17.8828 42.1745 17.862 42.4766 17.8203C42.7786 17.7734 43.0729 17.7083 43.3594 17.625C42.8802 17.349 42.4766 16.9844 42.1484 16.5312C41.8203 16.0781 41.6562 15.5234 41.6562 14.8672ZM44.4531 17.2891C44.9583 17.0547 45.3646 16.7422 45.6719 16.3516C45.9792 15.9609 46.1328 15.474 46.1328 14.8906C46.1328 14.3385 45.9792 13.8906 45.6719 13.5469C45.3646 13.2031 44.9609 13.0312 44.4609 13.0312C43.9453 13.0312 43.5339 13.2031 43.2266 13.5469C42.9245 13.8854 42.7734 14.3333 42.7734 14.8906C42.7734 15.4688 42.9297 15.9557 43.2422 16.3516C43.5547 16.7422 43.9583 17.0547 44.4531 17.2891ZM51.5391 12.875C51.6797 13.4427 51.7917 13.9792 51.875 14.4844C51.9635 14.9896 52.0078 15.4609 52.0078 15.8984C52.0078 16.5286 51.8984 17.0781 51.6797 17.5469C51.4609 18.0104 51.112 18.3698 50.6328 18.625C50.1536 18.875 49.5182 19 48.7266 19H48.3125C48.2292 19 48.1745 18.9583 48.1484 18.875C48.1172 18.7917 48.1016 18.6484 48.1016 18.4453C48.1016 18.237 48.1172 18.0911 48.1484 18.0078C48.1745 17.9245 48.2292 17.8828 48.3125 17.8828H48.7266C49.5286 17.8828 50.0964 17.7083 50.4297 17.3594C50.763 17.0052 50.9297 16.5078 50.9297 15.8672C50.9297 15.5026 50.888 15.0964 50.8047 14.6484C50.7214 14.1953 50.6172 13.7005 50.4922 13.1641L51.5391 12.875ZM49.0938 10.1406L50.1562 9.07812L51.2188 10.1406L50.1562 11.1953L49.0938 10.1406Z" fill="white"/>
</svg>
