<svg width="17" height="16" viewBox="0 0 17 16" fill="none" xmlns="http://www.w3.org/2000/svg">
<path fill-rule="evenodd" clip-rule="evenodd" d="M12.0439 9.10514C13.1225 9.10514 14 9.97823 14 11.0512C14 12.1242 13.1225 12.9973 12.0439 12.9973C10.9646 12.9973 10.0865 12.1242 10.0865 11.0512C10.0865 9.97823 10.9646 9.10514 12.0439 9.10514ZM12.0439 10.048C11.4844 10.048 11.0294 10.4981 11.0294 11.0512C11.0294 11.605 11.4844 12.0544 12.0439 12.0544C12.6027 12.0544 13.0571 11.605 13.0571 11.0512C13.0571 10.4981 12.6027 10.048 12.0439 10.048ZM7.4505 10.6042C7.71073 10.6042 7.92193 10.8154 7.92193 11.0756C7.92193 11.3358 7.71073 11.547 7.4505 11.547H3.48985C3.22962 11.547 3.01842 11.3358 3.01842 11.0756C3.01842 10.8154 3.22962 10.6042 3.48985 10.6042H7.4505ZM4.95675 3.00293C6.03602 3.00293 6.91351 3.87665 6.91351 4.94963C6.91351 6.0226 6.03602 6.89507 4.95675 6.89507C3.87812 6.89507 3 6.0226 3 4.94963C3 3.87665 3.87812 3.00293 4.95675 3.00293ZM4.95675 3.94579C4.39795 3.94579 3.94286 4.39585 3.94286 4.94963C3.94286 5.50277 4.39795 5.9522 4.95675 5.9522C5.51619 5.9522 5.97065 5.50277 5.97065 4.94963C5.97065 4.39585 5.51619 3.94579 4.95675 3.94579ZM13.1773 4.51176C13.4375 4.51176 13.6488 4.72296 13.6488 4.98319C13.6488 5.24342 13.4375 5.45462 13.1773 5.45462H9.2173C8.95707 5.45462 8.74587 5.24342 8.74587 4.98319C8.74587 4.72296 8.95707 4.51176 9.2173 4.51176H13.1773Z" fill="#F4F5F7"/>
</svg>
