<svg width="17" height="16" viewBox="0 0 17 16" fill="none" xmlns="http://www.w3.org/2000/svg">
<path fill-rule="evenodd" clip-rule="evenodd" d="M6.86511 1.39834C7.81558 0.64497 9.16534 0.64497 10.1158 1.39834L10.117 1.39927L14.5 4.89471C15.0167 5.29144 15.3244 5.90098 15.3334 6.55168L15.3335 6.55854L15.3334 12.3745C15.3334 13.9213 14.0682 15.1666 12.5181 15.1666H11.2354L11.2238 15.1665C10.511 15.15 9.93363 14.5716 9.93375 13.8539C9.93375 13.8539 9.93375 13.854 9.93375 13.8539V11.8031C9.93375 11.5615 9.73452 11.357 9.47814 11.357H7.55607C7.3016 11.3594 7.10489 11.563 7.10489 11.8031V13.8476C7.10489 13.8968 7.09778 13.9444 7.08452 13.9893C7.01323 14.6549 6.44545 15.1666 5.76472 15.1666H4.48202C2.93194 15.1666 1.66675 13.9213 1.66675 12.3745V6.55995C1.67319 5.90803 1.98151 5.29688 2.50023 4.90099L6.86511 1.39834ZM6.10489 13.8476V11.8031C6.10489 11.8031 6.10489 11.8031 6.10489 11.8031C6.10488 11.0036 6.75537 10.3623 7.55077 10.3571L7.55409 10.357L9.47814 10.357C10.2773 10.357 10.9338 10.9997 10.9338 11.8031V13.8539C10.9337 14.0178 11.0659 14.1602 11.2425 14.1666H12.5181C13.5254 14.1666 14.3334 13.3596 14.3334 12.3745V6.56228C14.3278 6.21999 14.165 5.89717 13.8886 5.68604L13.8803 5.67958L9.49465 2.18202C9.49447 2.18188 9.49429 2.18174 9.49411 2.18159C8.90792 1.71737 8.07371 1.71722 7.48737 2.18115L3.12103 5.68498L3.11007 5.69353C2.83326 5.90328 2.67082 6.22588 2.66675 6.56758V12.3745C2.66675 13.3596 3.47472 14.1666 4.48202 14.1666H5.76472C5.95026 14.1666 6.09206 14.0191 6.09206 13.8476H6.10489Z" fill="#5E6C84"/>
</svg>
