<svg width="16" height="16" viewBox="0 0 16 16" fill="none" xmlns="http://www.w3.org/2000/svg">
<path fill-rule="evenodd" clip-rule="evenodd" d="M6.36511 1.39852C7.31558 0.645153 8.66534 0.645153 9.61581 1.39852L9.61698 1.39945L14 4.89489C14.5167 5.29163 14.8244 5.90117 14.8334 6.55186L14.8335 6.55872L14.8334 12.3747C14.8334 13.9215 13.5682 15.1668 12.0181 15.1668H10.7354L10.7238 15.1667C10.011 15.1502 9.43363 14.5718 9.43375 13.8541C9.43375 13.8541 9.43375 13.8542 9.43375 13.8541V11.8033C9.43375 11.5617 9.23452 11.3572 8.97814 11.3572H7.05607C6.8016 11.3596 6.60489 11.5632 6.60489 11.8033V13.8478C6.60489 13.897 6.59778 13.9446 6.58452 13.9895C6.51323 14.655 5.94545 15.1668 5.26472 15.1668H3.98202C2.43194 15.1668 1.16675 13.9215 1.16675 12.3747V6.56013C1.17319 5.90821 1.48151 5.29706 2.00023 4.90117L6.36511 1.39852ZM5.60489 13.8478V11.8033C5.60489 11.8033 5.60489 11.8033 5.60489 11.8033C5.60488 11.0037 6.25537 10.3625 7.05077 10.3572L7.05409 10.3572L8.97814 10.3572C9.7773 10.3572 10.4338 10.9999 10.4338 11.8033V13.8541C10.4337 14.018 10.5659 14.1604 10.7425 14.1668H12.0181C13.0254 14.1668 13.8334 13.3597 13.8334 12.3747V6.56246C13.8278 6.22017 13.665 5.89736 13.3886 5.68622L13.3803 5.67976L8.99465 2.1822C8.99447 2.18206 8.99429 2.18192 8.99411 2.18178C8.40792 1.71755 7.57371 1.7174 6.98737 2.18134L2.62103 5.68517L2.61007 5.69372C2.33326 5.90346 2.17082 6.22606 2.16675 6.56777V12.3747C2.16675 13.3597 2.97472 14.1668 3.98202 14.1668H5.26472C5.45026 14.1668 5.59206 14.0193 5.59206 13.8478H5.60489Z" fill="#F4F5F7"/>
</svg>
