<svg width="16" height="17" viewBox="0 0 16 17" fill="none" xmlns="http://www.w3.org/2000/svg">
<path fill-rule="evenodd" clip-rule="evenodd" d="M8.8987 2.83337C5.76868 2.83337 3.23174 5.37018 3.23174 8.50004C3.23174 8.77618 3.00787 9.00004 2.73172 9.00004C2.45556 9.00004 2.23169 8.77618 2.23169 8.50004C2.23169 4.8179 5.21637 1.83337 8.8987 1.83337C12.581 1.83337 15.5657 4.8179 15.5657 8.50004C15.5657 12.1822 12.581 15.1667 8.8987 15.1667C6.86634 15.1667 5.0461 14.257 3.82404 12.8242C3.64483 12.6141 3.66989 12.2985 3.88 12.1193C4.09012 11.9401 4.40572 11.9651 4.58493 12.1753C5.62507 13.3947 7.17137 14.1667 8.8987 14.1667C12.0287 14.1667 14.5657 11.6299 14.5657 8.50004C14.5657 5.37018 12.0287 2.83337 8.8987 2.83337Z" fill="#7A869A"/>
<path fill-rule="evenodd" clip-rule="evenodd" d="M0.559103 6.68961C0.750695 6.49074 1.06724 6.48482 1.26612 6.67641L2.83162 8.18442L4.39712 6.67641C4.59601 6.48482 4.91255 6.49074 5.10414 6.68961C5.29573 6.88848 5.28982 7.20501 5.09094 7.39659L3.17853 9.23877C2.98488 9.42532 2.67837 9.42532 2.48472 9.23877L0.572309 7.39659C0.373424 7.20501 0.367511 6.88848 0.559103 6.68961Z" fill="#7A869A"/>
</svg>
