<svg width="16" height="17" viewBox="0 0 16 17" fill="none" xmlns="http://www.w3.org/2000/svg">
<path fill-rule="evenodd" clip-rule="evenodd" d="M8.8987 2.8335C5.76868 2.8335 3.23174 5.37031 3.23174 8.50016C3.23174 8.77631 3.00787 9.00016 2.73172 9.00016C2.45556 9.00016 2.23169 8.77631 2.23169 8.50016C2.23169 4.81802 5.21637 1.8335 8.8987 1.8335C12.581 1.8335 15.5657 4.81802 15.5657 8.50016C15.5657 12.1823 12.581 15.1668 8.8987 15.1668C6.86634 15.1668 5.0461 14.2571 3.82404 12.8243C3.64483 12.6142 3.66989 12.2986 3.88 12.1194C4.09012 11.9402 4.40572 11.9653 4.58493 12.1754C5.62507 13.3949 7.17137 14.1668 8.8987 14.1668C12.0287 14.1668 14.5657 11.63 14.5657 8.50016C14.5657 5.37031 12.0287 2.8335 8.8987 2.8335Z" fill="#EBECF0"/>
<path fill-rule="evenodd" clip-rule="evenodd" d="M0.559103 6.68973C0.750695 6.49086 1.06724 6.48495 1.26612 6.67653L2.83162 8.18454L4.39712 6.67653C4.59601 6.48495 4.91255 6.49086 5.10414 6.68973C5.29573 6.88861 5.28982 7.20513 5.09094 7.39672L3.17853 9.2389C2.98488 9.42544 2.67837 9.42544 2.48472 9.2389L0.572309 7.39672C0.373424 7.20513 0.367511 6.88861 0.559103 6.68973Z" fill="#EBECF0"/>
</svg>
